<?xml version="1.0" encoding="utf-8"?>
<!-- Generator: Adobe Illustrator 18.1.1, SVG Export Plug-In . SVG Version: 6.00 Build 0)  -->
<svg version="1.1" id="Layer_1" xmlns="http://www.w3.org/2000/svg" xmlns:xlink="http://www.w3.org/1999/xlink" x="0px" y="0px"
	 viewBox="0 0 841.9 595.3" enable-background="new 0 0 841.9 595.3" xml:space="preserve">
<g>
	<g>
		<path d="M419.4,477.4L237.6,295.5l181.9-181.9l181.9,181.9 M591,295.5L419.4,123.9L247.8,295.5l171.6,171.6"/>
	</g>
	<g>
		<path d="M466.9,376.4c-0.6,0-1.2-0.2-1.7-0.7c-0.2-0.2-5.1-5.1-4.9-11.2c0.2-6.1,5.5-10.6,5.7-10.8c1-0.8,2.4-0.8,3.3,0.1
			c0.2,0.2,5.1,5.1,4.9,11.2c-0.2,6.1-5.5,10.6-5.7,10.8C468,376.2,467.4,376.4,466.9,376.4z M467.4,359.2c-1.1,1.4-2.2,3.3-2.3,5.5
			c-0.1,2.1,1,4.2,1.9,5.6c1.1-1.4,2.2-3.3,2.3-5.5S468.4,360.7,467.4,359.2z"/>
	</g>
	<g>
		<path d="M453.6,363.3c-0.6,0-1.2-0.2-1.7-0.7c-0.2-0.2-5.1-5.1-4.9-11.2c0.2-6.1,5.5-10.6,5.7-10.8c1-0.8,2.4-0.8,3.3,0.1
			c0.2,0.2,5.1,5.1,4.9,11.2s-5.5,10.6-5.7,10.8C454.7,363.1,454.1,363.3,453.6,363.3z M454.1,346.1c-1.1,1.4-2.2,3.3-2.3,5.5
			c-0.1,2.1,1,4.2,1.9,5.6c1.1-1.4,2.2-3.3,2.3-5.5C456.1,349.6,455,347.6,454.1,346.1z"/>
	</g>
	<g>
		<path d="M491.9,371.3c-0.7,0-7.3-0.1-11.4-4.4c-4.2-4.5-3.7-11.4-3.7-11.7c0.1-1.3,1.1-2.2,2.4-2.2c0,0,0,0,0.1,0
			c0.7,0,7.3,0.1,11.4,4.4c4.2,4.5,3.7,11.4,3.7,11.7C494.3,370.4,493.2,371.3,491.9,371.3C492,371.3,491.9,371.3,491.9,371.3z
			 M481.9,358.1c0.2,1.7,0.8,3.9,2.3,5.5c1.5,1.6,3.6,2.3,5.3,2.6c-0.2-1.7-0.8-3.9-2.3-5.5C485.7,359.2,483.5,358.5,481.9,358.1z"
			/>
	</g>
	<g>
		<path d="M478.6,348.3c-3.9,0-7.3-1.5-7.4-1.6c-1.1-0.5-1.7-1.8-1.3-3c0.1-0.3,2.5-6.8,8.2-9.1c1.5-0.6,3.1-0.9,4.8-0.9
			c3.9,0,7.3,1.5,7.4,1.6c1.1,0.5,1.7,1.8,1.3,3c-0.1,0.3-2.5,6.8-8.2,9.1C482,348,480.4,348.3,478.6,348.3z M475.7,343.1
			c0.9,0.2,1.9,0.4,2.9,0.4c1.1,0,2.1-0.2,3-0.5c2-0.8,3.4-2.6,4.3-4.1c-0.9-0.2-1.9-0.4-2.9-0.4c-1.1,0-2.1,0.2-3,0.5
			C478,339.8,476.6,341.6,475.7,343.1z"/>
	</g>
	<g>
		<path d="M466.9,336.8c-3.9,0-7.3-1.5-7.4-1.6c-1.1-0.5-1.7-1.8-1.3-3c0.1-0.3,2.5-6.8,8.2-9.1c1.5-0.6,3.1-0.9,4.8-0.9
			c3.9,0,7.3,1.5,7.4,1.6c1.1,0.5,1.7,1.8,1.3,3c-0.1,0.3-2.5,6.8-8.2,9.1C470.3,336.5,468.7,336.8,466.9,336.8z M464,331.6
			c0.9,0.2,1.9,0.4,2.9,0.4c1.1,0,2.1-0.2,3-0.5c2-0.8,3.4-2.6,4.3-4.1c-0.9-0.2-1.9-0.4-2.9-0.4c-1.1,0-2.1,0.2-3,0.5
			C466.3,328.3,464.9,330.1,464,331.6z"/>
	</g>
	<g>
		<path d="M361.8,351c-0.3,0-0.6,0-0.9,0c-5.3-0.2-10.3-1.7-14-4.4c-4.1-2.9-6.4-7-6.3-11.3c0.3-8.3,9.7-14.7,21.3-14.4
			c5.3,0.2,10.3,1.7,14,4.4c4.1,2.9,6.4,7,6.3,11.3C381.9,344.7,373,351,361.8,351z M360.9,328.2c-7.7,0-13,3.8-13.1,7.3
			c-0.1,2.4,2,4.2,3.2,5.1c2.6,1.8,6.2,2.9,10,3c0.2,0,0.5,0,0.7,0c7.7,0,13-3.8,13.1-7.3c0.1-2.4-2-4.2-3.2-5.1
			c-2.6-1.8-6.2-2.9-10-3C361.4,328.2,361.1,328.2,360.9,328.2z"/>
	</g>
	<g>
		<path d="M361.1,363.9c-0.2,0-0.5,0-0.7,0c-4.1-0.1-8-1.3-11-3.4c-3.4-2.4-5.2-5.7-5.1-9.2c0.1-2,1.7-3.6,3.7-3.5
			c2,0.1,3.6,1.7,3.5,3.7c0,1.4,1.4,2.6,2,3c1.8,1.3,4.3,2,7,2.1c2.7,0.1,5.3-0.5,7.1-1.7c0.7-0.4,2.2-1.5,2.2-2.9
			c0.1-2,1.7-3.6,3.7-3.5c2,0.1,3.6,1.7,3.5,3.7c-0.1,3.5-2.2,6.7-5.7,8.9C368.7,363,365,363.9,361.1,363.9z"/>
	</g>
	<g>
		<path d="M347.9,355.1c-1.6,0-3.1-1.1-3.5-2.8l-3.8-16c-0.5-2,0.8-3.9,2.7-4.4c2-0.5,3.9,0.8,4.4,2.7l3.8,16c0.5,2-0.8,3.9-2.7,4.4
			C348.5,355,348.2,355.1,347.9,355.1z"/>
	</g>
	<g>
		<path d="M374.1,355.8c-0.4,0-0.7-0.1-1.1-0.2c-1.9-0.6-3-2.6-2.4-4.6l4.9-15.7c0.6-1.9,2.6-3,4.6-2.4c1.9,0.6,3,2.6,2.4,4.6
			l-4.9,15.7C377.1,354.8,375.6,355.8,374.1,355.8z"/>
	</g>
	<g>
		<path d="M490.7,221.3c-1.5-1.4-3.8-1.3-5.1,0.1L449.6,259c1.5,2,2.8,4.2,3.9,6.5l37.3-39C492.2,225,492.1,222.7,490.7,221.3z"/>
		<path d="M388.9,260.9l-39.5-39.5c-1.4-1.4-3.7-1.4-5.1,0c-1.4,1.4-1.4,3.7,0,5.1l41.1,41.1C386.3,265.3,387.5,263,388.9,260.9z"/>
		<path d="M390.8,326.4l-1.1-4.8l-11.6,12.1c-1.4,1.5-1.3,3.8,0.1,5.1c0.7,0.7,1.6,1,2.5,1c1,0,1.9-0.4,2.6-1.1l8.2-8.6L390.8,326.4
			z"/>
		<path d="M450.1,322l-1.9,8.4l26.8,26.8c0.7,0.7,1.6,1.1,2.6,1.1c0.9,0,1.9-0.4,2.6-1.1c1.4-1.4,1.4-3.7,0-5.1L450.1,322z"/>
	</g>
	<g>
		<path d="M443,116.5l-2.7-2.7l4.8-4.8l-4.7-4.7l-4.8,4.8l-2.7-2.7l11.4-11.4l2.7,2.7l-4.8,4.8l4.7,4.7l4.8-4.8l2.7,2.7L443,116.5z"
			/>
		<path d="M470,120.6l-2,2l-4.7-4.7l-2.7,2.7l3.6,3.6l-2,2l-3.6-3.6l-2.7,2.7l4.7,4.7l-2,2l-7.4-7.4l11.4-11.4L470,120.6z"/>
		<path d="M471.1,140.4l4.2,4.2l-2.1,2.1l-6.9-6.9l11.4-11.4l2.7,2.7L471.1,140.4z"/>
		<path d="M496.3,151.6c-0.2,0-0.4,0.1-0.5,0c-0.1,0-0.3-0.1-0.4-0.2c-0.1-0.1-0.2-0.3-0.3-0.5c-0.1-0.2-0.1-0.5-0.2-0.7
			c-0.1-0.3-0.2-0.6-0.3-0.9c-0.1-0.3-0.4-0.6-0.7-0.9c-0.5-0.5-1-0.8-1.4-0.8c-0.5,0-0.9,0.1-1.2,0.5c-0.2,0.2-0.3,0.5-0.4,0.8
			c0,0.3,0.1,0.6,0.2,1c0.1,0.3,0.3,0.7,0.5,1.1c0.2,0.4,0.4,0.8,0.6,1.2c0.2,0.4,0.4,0.9,0.5,1.3c0.2,0.5,0.2,0.9,0.2,1.4
			c0,0.5-0.1,1-0.3,1.4c-0.2,0.5-0.5,1-1,1.4c-0.5,0.5-1.1,0.9-1.8,1.2c-0.6,0.3-1.3,0.4-2,0.4c-0.7,0-1.4-0.2-2.1-0.5
			c-0.7-0.3-1.4-0.8-2-1.4c-0.4-0.4-0.7-0.8-1-1.2c-0.3-0.4-0.6-0.9-0.8-1.4c-0.2-0.5-0.4-1-0.5-1.4c-0.1-0.5-0.2-1-0.2-1.4l2-0.5
			c0.2,0,0.3,0,0.5,0c0.2,0,0.3,0.1,0.4,0.3c0.2,0.2,0.3,0.4,0.3,0.6c0.1,0.3,0.1,0.5,0.2,0.9c0.1,0.3,0.2,0.7,0.4,1
			c0.2,0.4,0.4,0.7,0.8,1.1c0.5,0.5,1,0.8,1.4,0.8c0.5,0.1,0.9-0.1,1.4-0.6c0.3-0.3,0.4-0.6,0.4-0.9c0-0.3,0-0.6-0.2-1
			c-0.1-0.3-0.3-0.7-0.5-1.1c-0.2-0.4-0.4-0.8-0.7-1.2c-0.2-0.4-0.4-0.9-0.6-1.3c-0.2-0.5-0.2-0.9-0.2-1.4c0-0.5,0.1-1,0.3-1.5
			c0.2-0.5,0.6-1,1.1-1.6c0.4-0.4,0.9-0.8,1.5-1c0.6-0.2,1.2-0.3,1.9-0.3c0.7,0,1.3,0.2,2,0.5c0.7,0.3,1.3,0.8,2,1.4
			c0.4,0.4,0.7,0.7,0.9,1.1c0.3,0.4,0.5,0.8,0.7,1.2c0.2,0.4,0.3,0.8,0.5,1.2c0.1,0.4,0.2,0.8,0.2,1.2L496.3,151.6z"/>
		<path d="M498.5,172l-2.7-2.7l11.4-11.4l2.7,2.7L498.5,172z"/>
		<path d="M520,170.7c0.1,0.1,0.1,0.2,0.2,0.3c0,0.1,0.1,0.2,0.1,0.3c0,0.1,0,0.2,0,0.4l-1.4,12.3c0.2-0.2,0.4-0.5,0.6-0.7
			c0.2-0.2,0.4-0.4,0.6-0.6l6.1-6.1l2.3,2.3l-11.4,11.4l-1.4-1.4c-0.2-0.2-0.3-0.4-0.4-0.6c-0.1-0.2-0.1-0.5-0.1-0.8l1.4-12.2
			c-0.2,0.2-0.4,0.4-0.5,0.6c-0.2,0.2-0.4,0.4-0.5,0.6l-6.1,6.1l-2.3-2.3l11.4-11.4l1.4,1.4C519.8,170.5,519.9,170.6,520,170.7z"/>
		<path d="M534.5,194.4l0.4,0.4c0.4,0.4,0.8,0.6,1.2,0.5l6.3-1.2c0.3-0.1,0.6,0,0.9,0.1c0.3,0.1,0.5,0.3,0.8,0.6l2.3,2.3l-8,1.2
			c-0.3,0-0.6,0.1-0.8,0c-0.2,0-0.5-0.1-0.7-0.1c0.1,0.3,0.2,0.6,0.2,0.8c0,0.3,0,0.6-0.1,1l-1.9,8.8l-2.4-2.4
			c-0.2-0.2-0.3-0.3-0.4-0.4s-0.1-0.3-0.2-0.4c0-0.1-0.1-0.2-0.1-0.4c0-0.1,0-0.2,0-0.4l1.4-6.6c0.1-0.2,0-0.5,0-0.7
			c-0.1-0.2-0.2-0.4-0.5-0.7l-0.6-0.6l-4.9,4.9l-2.7-2.7l11.4-11.4l2.7,2.7L534.5,194.4z"/>
		<path d="M545.4,219l-2.7-2.7l11.4-11.4l2.7,2.7L545.4,219z"/>
		<path d="M569.2,219.6c0.6,0.6,1,1.2,1.3,1.8c0.3,0.6,0.4,1.2,0.5,1.8c0,0.6-0.1,1.2-0.3,1.8c-0.2,0.6-0.6,1.1-1.1,1.6
			c-0.4,0.4-0.9,0.7-1.3,1s-1,0.4-1.5,0.5c-0.5,0.1-1.1,0.2-1.6,0.2c-0.6,0-1.2,0-1.8,0.1l-4.5,0.1c0.4,0.2,0.7,0.4,1.1,0.7
			c0.3,0.2,0.6,0.5,0.9,0.7l2.1,2.1c0.3,0.3,0.4,0.5,0.4,0.8c0,0.3-0.1,0.6-0.3,0.8l-1.4,1.4l-8-8l0.8-0.8c0.2-0.2,0.3-0.3,0.6-0.4
			c0.2-0.1,0.5-0.2,0.8-0.1l6.6,0c0.6,0,1.1,0,1.5-0.1c0.5,0,0.9-0.1,1.3-0.2c0.4-0.1,0.7-0.3,1.1-0.4c0.3-0.2,0.6-0.4,0.9-0.7
			c0.5-0.5,0.7-0.9,0.7-1.4c0-0.5-0.2-0.9-0.6-1.4c-0.2-0.2-0.4-0.3-0.6-0.4c-0.2-0.1-0.4-0.2-0.6-0.2c-0.2,0-0.4,0-0.6,0
			c-0.2,0-0.4,0.1-0.6,0.2c-0.3,0.2-0.6,0.2-0.8,0.2c-0.2,0-0.5-0.1-0.7-0.4c-0.1-0.1-0.1-0.1-0.2-0.2c-0.1-0.1-0.1-0.1-0.2-0.2
			l-1.1-1.5c0.7-0.5,1.3-0.8,2-1s1.3-0.2,1.9-0.2c0.6,0.1,1.3,0.3,1.8,0.6C568.1,218.7,568.7,219.1,569.2,219.6z"/>
		<path d="M582.8,245c-1,1-2,1.8-2.9,2.3c-0.9,0.5-1.9,0.8-2.7,0.9c-0.9,0.1-1.7,0-2.4-0.3c-0.8-0.3-1.4-0.7-2-1.3
			c-0.6-0.6-1.1-1.3-1.3-2c-0.3-0.8-0.4-1.6-0.3-2.4c0.1-0.9,0.4-1.8,0.9-2.7c0.5-0.9,1.3-1.9,2.3-2.9c1-1,2-1.8,2.9-2.3
			c0.9-0.5,1.8-0.8,2.7-0.9c0.9-0.1,1.7,0,2.4,0.3c0.7,0.3,1.4,0.7,2,1.3c0.6,0.6,1.1,1.3,1.3,2c0.3,0.8,0.4,1.6,0.3,2.4
			c-0.1,0.9-0.4,1.8-0.9,2.7C584.6,243,583.8,244,582.8,245z M580.3,242.4c0.8-0.8,1.4-1.5,1.8-2.1c0.4-0.6,0.7-1.1,0.8-1.6
			c0.1-0.5,0.1-0.8,0-1.2c-0.1-0.3-0.3-0.6-0.5-0.8c-0.2-0.2-0.5-0.4-0.8-0.5c-0.3-0.1-0.7-0.1-1.1,0c-0.4,0.1-1,0.4-1.6,0.8
			c-0.6,0.4-1.3,1-2.1,1.8c-0.8,0.8-1.4,1.5-1.8,2.1c-0.4,0.6-0.7,1.1-0.8,1.6c-0.1,0.5-0.1,0.8,0,1.1c0.1,0.3,0.3,0.6,0.5,0.8
			c0.2,0.2,0.5,0.4,0.8,0.5c0.3,0.1,0.7,0.1,1.2,0c0.5-0.1,1-0.4,1.6-0.8S579.5,243.2,580.3,242.4z"/>
		<path d="M587.5,257.5l2.2,2.2l5.8-5.8c0.3-0.3,0.6-0.6,0.9-0.9l-2.4-0.2c-0.2,0-0.3-0.1-0.4-0.1c-0.1-0.1-0.2-0.1-0.3-0.2
			c-0.1-0.1-0.2-0.3-0.3-0.5c0-0.2-0.1-0.3,0-0.4l0.3-1.8l6.6,0.6l2,2l-9.7,9.7l1.9,1.9l-1.8,1.8l-6.5-6.5L587.5,257.5z"/>
	</g>
	<g>
		<path d="M419.4,209c-11.6,0-21.1-9.5-21.1-21.1c0-4.7,3-12.4,9.2-23.7c4.4-8,8.7-14.6,8.9-14.9l3.1-4.7l3.1,4.7
			c1.8,2.8,18.1,28.1,18.1,38.6C440.6,199.5,431.1,209,419.4,209z M419.4,158.2c-1.6,2.6-3.6,6-5.6,9.6c-7.5,13.6-8.3,18.6-8.3,20.1
			c0,7.6,6.2,13.8,13.8,13.8c7.6,0,13.8-6.2,13.8-13.8c0-1.5-0.8-6.6-8.3-20.1C423,164.1,421,160.8,419.4,158.2z"/>
	</g>
	<g>
		<path d="M419.4,445l-3.1-4.7c-1.8-2.8-18.1-28.1-18.1-38.6c0-11.6,9.5-21.1,21.1-21.1c11.6,0,21.1,9.5,21.1,21.1
			c0,4.7-3,12.4-9.2,23.7c-4.4,8-8.7,14.6-8.9,14.9L419.4,445z M419.4,387.9c-7.6,0-13.8,6.2-13.8,13.8c0,1.5,0.8,6.6,8.3,20.1
			c2,3.6,4,7,5.6,9.6c1.6-2.6,3.6-6,5.6-9.6c7.5-13.6,8.3-18.6,8.3-20.1C433.3,394.1,427.1,387.9,419.4,387.9z"/>
	</g>
	<g>
		<path d="M295.6,316.1c-0.9,0-1.9-0.4-2.6-1.1l-20-20l20-20c1.4-1.4,3.7-1.4,5.1,0c1.4,1.4,1.4,3.7,0,5.1l-14.8,14.8l14.8,14.8
			c1.4,1.4,1.4,3.7,0,5.1C297.4,315.8,296.5,316.1,295.6,316.1z"/>
	</g>
	<g>
		<path d="M544.7,316.1c-0.9,0-1.9-0.4-2.6-1.1c-1.4-1.4-1.4-3.7,0-5.1l14.8-14.8l-14.8-14.8c-1.4-1.4-1.4-3.7,0-5.1
			c1.4-1.4,3.7-1.4,5.1,0l20,20l-20,20C546.5,315.8,545.6,316.1,544.7,316.1z"/>
	</g>
	<g>
		<path d="M448.6,287.9c-2,0-3.6-1.6-3.6-3.6c0-15.4-11.2-28-25.1-28c-13.8,0-25.1,12.6-25.1,28c0,2-1.6,3.6-3.6,3.6
			s-3.6-1.6-3.6-3.6c0-19.5,14.5-35.3,32.3-35.3c17.8,0,32.3,15.8,32.3,35.3C452.3,286.2,450.6,287.9,448.6,287.9z"/>
	</g>
	<g>
		<path d="M419.9,300.7c-16.1,0-32.3-5.2-32.3-15c0-6.3,6.7-9.8,10.7-11.4c5.8-2.3,13.5-3.6,21.6-3.6c16.1,0,32.3,5.2,32.3,15
			c0,6.3-6.7,9.8-10.7,11.4C435.7,299.4,428,300.7,419.9,300.7z M419.9,277.9c-16.5,0-25.1,5.4-25.1,7.7c0,2.3,8.5,7.7,25.1,7.7
			c16.5,0,25.1-5.4,25.1-7.7C445,283.3,436.5,277.9,419.9,277.9z"/>
	</g>
	<g>
		<path d="M419.9,335.6c-5.9,0-11.4-0.9-15.6-2.6c-7.2-2.8-8.2-6.9-8.2-9.1c0-2,1.6-3.6,3.6-3.6c2,0,3.6,1.6,3.6,3.6
			c0.5,1.3,6.2,4.4,16.6,4.4c10.4,0,16.1-3.2,16.6-4.4c0-2,1.6-3.6,3.6-3.6c2,0,3.6,1.6,3.6,3.6c0,2.2-1.1,6.2-8.2,9.1
			C431.3,334.7,425.8,335.6,419.9,335.6z"/>
	</g>
	<g>
		<path d="M391.5,290.8c-1.4,0-2.7-0.8-3.3-2.2c-0.8-1.8,0-4,1.8-4.8c1.8-0.8,4,0,4.8,1.8l0,0c0.8,1.8,0,4-1.8,4.8
			C392.5,290.7,392,290.8,391.5,290.8z"/>
	</g>
	<g>
		<path d="M399.7,328.1c-1.7,0-3.2-1.2-3.6-2.9l-8.5-38.8c-0.4-2,0.8-3.9,2.8-4.3c2-0.4,3.9,0.8,4.3,2.8l8.5,38.8
			c0.4,2-0.8,3.9-2.8,4.3C400.2,328.1,399.9,328.1,399.7,328.1z"/>
	</g>
	<g>
		<path d="M440.1,328.1c-0.3,0-0.5,0-0.8-0.1c-2-0.4-3.2-2.4-2.7-4.4l8.5-37.3c0.4-2,2.4-3.2,4.4-2.7c2,0.4,3.2,2.4,2.7,4.4
			l-8.5,37.3C443.3,326.9,441.8,328.1,440.1,328.1z"/>
	</g>
	<g>
		<path d="M390,492.3c0.2,0,0.4-0.1,0.5,0c0.1,0,0.3,0.1,0.4,0.2c0.1,0.1,0.2,0.3,0.3,0.5c0.1,0.2,0.1,0.5,0.2,0.7
			c0.1,0.3,0.2,0.6,0.3,0.9c0.1,0.3,0.4,0.6,0.7,0.9c0.5,0.5,1,0.8,1.4,0.8c0.5,0,0.9-0.1,1.2-0.5c0.2-0.2,0.3-0.5,0.4-0.8
			c0-0.3-0.1-0.6-0.2-1c-0.1-0.3-0.3-0.7-0.5-1.1c-0.2-0.4-0.4-0.8-0.6-1.2c-0.2-0.4-0.4-0.9-0.5-1.3c-0.2-0.5-0.2-0.9-0.2-1.4
			c0-0.5,0.1-1,0.3-1.4c0.2-0.5,0.5-1,1-1.4c0.5-0.5,1.1-0.9,1.8-1.2c0.6-0.3,1.3-0.4,2-0.4c0.7,0,1.4,0.2,2.1,0.5
			c0.7,0.3,1.4,0.8,2,1.4c0.4,0.4,0.7,0.8,1,1.2c0.3,0.4,0.5,0.9,0.8,1.4c0.2,0.5,0.4,1,0.5,1.4c0.1,0.5,0.2,1,0.2,1.4l-2,0.5
			c-0.2,0-0.3,0-0.5,0c-0.2,0-0.3-0.1-0.4-0.3c-0.2-0.2-0.3-0.4-0.3-0.6c-0.1-0.3-0.1-0.5-0.2-0.9c-0.1-0.3-0.2-0.7-0.4-1
			c-0.2-0.4-0.4-0.7-0.8-1.1c-0.5-0.5-1-0.8-1.4-0.8c-0.5-0.1-0.9,0.1-1.4,0.6c-0.3,0.3-0.4,0.6-0.4,0.9c0,0.3,0,0.6,0.2,1
			c0.1,0.3,0.3,0.7,0.5,1.1c0.2,0.4,0.4,0.8,0.7,1.2c0.2,0.4,0.4,0.9,0.6,1.3c0.2,0.5,0.2,0.9,0.2,1.4c0,0.5-0.1,1-0.3,1.5
			c-0.2,0.5-0.6,1-1.1,1.6c-0.4,0.4-0.9,0.8-1.5,1c-0.6,0.2-1.2,0.3-1.9,0.3c-0.7,0-1.3-0.2-2-0.5c-0.7-0.3-1.3-0.8-2-1.4
			c-0.4-0.4-0.7-0.7-0.9-1.1c-0.3-0.4-0.5-0.8-0.7-1.2c-0.2-0.4-0.3-0.8-0.5-1.2s-0.2-0.8-0.2-1.2L390,492.3z"/>
		<path d="M376.9,460.9l2.1,2.1c0.2,0.2,0.4,0.5,0.4,0.7c0,0.3,0,0.5-0.1,0.7l-1.3,2.7l4.4,4.4l2.7-1.3c0.2-0.1,0.4-0.1,0.7-0.1
			c0.3,0,0.5,0.2,0.7,0.4l2.1,2.1l-15.9,7l-2.7-2.7L376.9,460.9z M379.9,472.7l-3.1-3.1l-2.1,4.2c-0.1,0.3-0.3,0.6-0.5,0.9
			c-0.2,0.4-0.4,0.7-0.6,1.1c0.4-0.2,0.8-0.4,1.1-0.6s0.7-0.3,1-0.5L379.9,472.7z"/>
		<path d="M360.1,448.3c-0.4-0.4-0.7-0.6-1.1-0.8c-0.4-0.2-0.8-0.2-1.2-0.2c-0.4,0-0.8,0.1-1.2,0.4c-0.4,0.2-0.8,0.5-1.2,0.9
			l-6.8,6.8l-2.7-2.7l6.8-6.8c0.7-0.7,1.5-1.2,2.3-1.6c0.8-0.4,1.6-0.5,2.5-0.5c0.8,0,1.7,0.2,2.5,0.6c0.8,0.4,1.6,0.9,2.4,1.7
			c0.8,0.8,1.3,1.6,1.7,2.4c0.4,0.8,0.6,1.7,0.6,2.5c0,0.8-0.2,1.7-0.5,2.5c-0.4,0.8-0.9,1.6-1.6,2.3l-6.8,6.8l-2.7-2.7l6.8-6.8
			c0.4-0.4,0.7-0.8,0.9-1.2c0.2-0.4,0.3-0.8,0.4-1.3c0-0.4,0-0.8-0.2-1.2C360.7,449,360.5,448.6,360.1,448.3z"/>
		<path d="M333,439.9c-0.1-0.1-0.1-0.2-0.2-0.3c0-0.1-0.1-0.2-0.1-0.3c0-0.1,0-0.2,0-0.4l1.4-12.3c-0.2,0.2-0.4,0.5-0.6,0.7
			c-0.2,0.2-0.4,0.4-0.6,0.6l-6.1,6.1l-2.3-2.3l11.4-11.4l1.4,1.4c0.2,0.2,0.3,0.4,0.4,0.6c0.1,0.2,0.1,0.5,0.1,0.8l-1.4,12.2
			c0.2-0.2,0.4-0.4,0.5-0.6c0.2-0.2,0.4-0.4,0.5-0.6l6.1-6.1l2.3,2.3l-11.4,11.4l-1.4-1.4C333.2,440.1,333.1,440,333,439.9z"/>
		<path d="M314.2,398.2l2.1,2.1c0.2,0.2,0.4,0.5,0.4,0.7c0,0.3,0,0.5-0.1,0.7l-1.3,2.7l4.4,4.4l2.7-1.3c0.2-0.1,0.4-0.1,0.7-0.1
			s0.5,0.2,0.7,0.4l2.1,2.1l-15.9,7l-2.7-2.7L314.2,398.2z M317.2,409.9l-3.1-3.1l-2.1,4.2c-0.1,0.3-0.3,0.6-0.5,0.9
			c-0.2,0.4-0.4,0.7-0.6,1.1c0.4-0.2,0.8-0.4,1.1-0.6c0.4-0.2,0.7-0.3,1-0.5L317.2,409.9z"/>
		<path d="M293.6,383.5c-0.1-0.1-0.1-0.1-0.2-0.2c0-0.1-0.1-0.2-0.1-0.3l0.1-2.2c1.1-0.1,2.1,0,3.1,0.4c1,0.4,2,1.1,2.9,2
			c0.9,0.9,1.5,1.8,1.9,2.8c0.4,1,0.6,2,0.5,3c0,1-0.3,2-0.8,3c-0.5,1-1.1,1.9-1.9,2.7c-0.9,0.9-1.8,1.5-2.8,1.9
			c-1,0.4-2,0.6-3.1,0.6c-1,0-2.1-0.2-3.1-0.7c-1-0.4-2-1.1-2.9-2c-0.4-0.4-0.8-0.9-1.1-1.3c-0.3-0.5-0.6-0.9-0.8-1.4
			c-0.2-0.5-0.3-0.9-0.4-1.4c-0.1-0.5-0.1-0.9-0.1-1.4l2.1-0.3c0.1,0,0.3,0,0.4,0c0.1,0,0.3,0.1,0.4,0.2c0.1,0.1,0.2,0.2,0.2,0.3
			c0,0.1,0.1,0.3,0.1,0.4c0,0.2,0.1,0.3,0.1,0.5c0,0.2,0.1,0.4,0.2,0.6c0.1,0.2,0.2,0.4,0.4,0.7c0.2,0.2,0.4,0.5,0.7,0.8
			c0.5,0.5,1,0.8,1.6,1.1c0.6,0.2,1.2,0.3,1.8,0.3c0.6,0,1.2-0.2,1.8-0.5c0.6-0.3,1.2-0.7,1.8-1.3c0.6-0.6,1-1.2,1.3-1.8
			c0.3-0.6,0.5-1.2,0.5-1.8c0-0.6,0-1.1-0.3-1.7c-0.2-0.5-0.5-1-0.9-1.4c-0.2-0.2-0.5-0.4-0.7-0.6c-0.2-0.2-0.4-0.3-0.7-0.4
			c-0.2-0.1-0.5-0.2-0.7-0.3c-0.2-0.1-0.5-0.1-0.8-0.1c-0.1,0-0.2,0-0.3-0.1C293.8,383.7,293.7,383.6,293.6,383.5z"/>
		<path d="M273.9,357.9l2.1,2.1c0.2,0.2,0.4,0.5,0.4,0.7c0,0.3,0,0.5-0.1,0.7l-1.3,2.7l4.4,4.4l2.7-1.3c0.2-0.1,0.4-0.1,0.7-0.1
			c0.3,0,0.5,0.2,0.7,0.4l2.1,2.1l-15.9,7l-2.7-2.7L273.9,357.9z M276.9,369.6l-3.1-3.1l-2.1,4.2c-0.1,0.3-0.3,0.6-0.5,0.9
			c-0.2,0.4-0.4,0.7-0.6,1.1c0.4-0.2,0.8-0.4,1.1-0.6c0.4-0.2,0.7-0.3,1-0.5L276.9,369.6z"/>
		<path d="M252.8,346c0.1-0.3,0.2-0.6,0.4-0.9c-0.3,0.1-0.6,0.3-1,0.4c-0.3,0.1-0.6,0.2-0.9,0.3l-8.7,2.9c-0.2,0-0.3,0.1-0.4,0.1
			c-0.1,0-0.2,0-0.3-0.1c-0.1,0-0.2-0.1-0.3-0.2c-0.1-0.1-0.2-0.2-0.3-0.3l-2-2l11.4-11.4l2.3,2.3l-6.6,6.6c-0.3,0.3-0.7,0.6-1.1,1
			l8.9-2.9c0.3-0.1,0.5-0.1,0.8,0c0.3,0.1,0.5,0.2,0.7,0.4l0.4,0.4c0.2,0.2,0.3,0.4,0.4,0.7c0.1,0.3,0.1,0.5,0,0.8l-2.8,8.9
			c0.2-0.2,0.3-0.4,0.5-0.6c0.2-0.2,0.3-0.4,0.5-0.5l6.6-6.6l2.3,2.3l-11.4,11.4l-2-2c-0.1-0.1-0.2-0.2-0.3-0.3
			c-0.1-0.1-0.2-0.2-0.2-0.3c0-0.1-0.1-0.2-0.1-0.3c0-0.1,0-0.2,0.1-0.4l2.9-8.8C252.5,346.6,252.6,346.3,252.8,346z"/>
		<path d="M232.9,324.5l3.8-3.8l2.7,2.7l-11.4,11.4l-4-4c-0.8-0.8-1.4-1.6-1.8-2.4c-0.4-0.8-0.6-1.5-0.6-2.2c0-0.7,0.1-1.4,0.4-2
			c0.3-0.6,0.7-1.2,1.2-1.7c0.6-0.6,1.2-1,1.8-1.3c0.7-0.3,1.3-0.4,2.1-0.4c0.7,0,1.5,0.2,2.2,0.6s1.6,1,2.3,1.8L232.9,324.5z
			 M230.9,326.5l-1.4-1.4c-0.7-0.7-1.4-1-2-1s-1.2,0.3-1.8,0.9c-0.3,0.3-0.5,0.5-0.6,0.8c-0.1,0.3-0.2,0.6-0.2,0.9
			c0,0.3,0.1,0.6,0.2,1s0.4,0.7,0.7,1l1.4,1.4L230.9,326.5z"/>
	</g>
</g>
<g>
	<path d="M642,318.5"/>
	<path d="M642,328.8"/>
	<path d="M638.9,354.2l3.1-4.7"/>
</g>
<g>
	<path d="M613.2,327.7c0-0.2-0.1-0.4,0-0.5c0-0.1,0.1-0.3,0.2-0.4c0.1-0.1,0.3-0.2,0.5-0.3c0.2-0.1,0.5-0.1,0.7-0.2
		c0.3-0.1,0.6-0.2,0.9-0.3c0.3-0.1,0.6-0.4,0.9-0.6c0.5-0.5,0.8-1,0.8-1.4c0-0.5-0.1-0.9-0.5-1.2c-0.2-0.2-0.5-0.4-0.8-0.4
		c-0.3,0-0.6,0.1-1,0.2c-0.3,0.1-0.7,0.3-1.1,0.5c-0.4,0.2-0.8,0.4-1.3,0.6c-0.4,0.2-0.9,0.4-1.3,0.5c-0.5,0.2-0.9,0.2-1.4,0.2
		c-0.5,0-1-0.1-1.4-0.3c-0.5-0.2-1-0.5-1.4-1c-0.5-0.5-0.9-1.1-1.2-1.8c-0.3-0.6-0.4-1.3-0.4-2c0-0.7,0.2-1.4,0.5-2.1
		c0.3-0.7,0.8-1.4,1.5-2c0.4-0.4,0.8-0.7,1.2-1c0.4-0.3,0.9-0.5,1.4-0.8c0.5-0.2,1-0.4,1.5-0.5c0.5-0.1,1-0.2,1.4-0.2l0.4,2
		c0,0.2,0,0.3,0,0.5c0,0.2-0.1,0.3-0.3,0.4c-0.2,0.2-0.4,0.3-0.6,0.3c-0.3,0.1-0.6,0.1-0.9,0.2c-0.3,0.1-0.7,0.2-1,0.4
		c-0.4,0.2-0.7,0.4-1.1,0.8c-0.5,0.5-0.8,1-0.8,1.4c-0.1,0.5,0.1,1,0.6,1.4c0.3,0.3,0.6,0.4,0.9,0.4c0.3,0,0.6,0,1-0.2
		c0.3-0.1,0.7-0.3,1.1-0.5c0.4-0.2,0.8-0.4,1.2-0.6c0.4-0.2,0.9-0.4,1.3-0.5c0.5-0.2,0.9-0.2,1.4-0.2c0.5,0,1,0.1,1.5,0.3
		c0.5,0.2,1,0.6,1.6,1.1c0.4,0.4,0.8,0.9,1,1.5c0.2,0.6,0.3,1.2,0.3,1.9c0,0.7-0.2,1.3-0.5,2c-0.3,0.7-0.8,1.3-1.4,1.9
		c-0.4,0.3-0.7,0.7-1.1,0.9c-0.4,0.3-0.8,0.5-1.2,0.7c-0.4,0.2-0.8,0.3-1.2,0.4c-0.4,0.1-0.8,0.2-1.2,0.2L613.2,327.7z"/>
	<path d="M581.7,340.5l2.1-2c0.2-0.2,0.5-0.4,0.7-0.4c0.3,0,0.5,0,0.7,0.1l2.7,1.3l4.4-4.3l-1.3-2.7c-0.1-0.2-0.1-0.4-0.1-0.7
		c0-0.3,0.2-0.5,0.4-0.7l2.1-2.1l6.9,15.9l-2.7,2.7L581.7,340.5z M593.5,337.7l-3.2,3.1l4.2,2.1c0.3,0.1,0.6,0.3,0.9,0.5
		c0.4,0.2,0.7,0.4,1.1,0.6c-0.2-0.4-0.4-0.8-0.6-1.2c-0.2-0.4-0.3-0.7-0.4-1L593.5,337.7z"/>
	<path d="M569,357.2c-0.4,0.4-0.6,0.7-0.8,1.1c-0.2,0.4-0.2,0.8-0.2,1.2c0,0.4,0.1,0.8,0.4,1.3c0.2,0.4,0.5,0.8,0.9,1.2l6.7,6.8
		l-2.7,2.6l-6.7-6.8c-0.7-0.7-1.2-1.5-1.6-2.3c-0.4-0.8-0.5-1.7-0.5-2.5c0-0.8,0.2-1.7,0.6-2.5c0.4-0.8,1-1.6,1.7-2.4
		c0.8-0.8,1.6-1.3,2.4-1.7c0.8-0.4,1.7-0.5,2.5-0.5c0.8,0,1.7,0.2,2.5,0.6c0.8,0.4,1.6,0.9,2.3,1.6l6.7,6.8l-2.7,2.6l-6.7-6.8
		c-0.4-0.4-0.8-0.7-1.2-0.9c-0.4-0.2-0.8-0.3-1.3-0.4c-0.4,0-0.8,0-1.2,0.2C569.7,356.6,569.3,356.9,569,357.2z"/>
	<path d="M560.3,384.3c-0.1,0.1-0.2,0.1-0.3,0.2c-0.1,0-0.2,0.1-0.3,0.1c-0.1,0-0.2,0-0.4,0l-12.3-1.5c0.2,0.2,0.5,0.4,0.7,0.6
		c0.2,0.2,0.4,0.4,0.6,0.6l6,6.1l-2.4,2.3L540.6,381l1.4-1.4c0.2-0.2,0.4-0.3,0.6-0.4c0.2-0.1,0.5-0.1,0.8-0.1l12.2,1.5
		c-0.2-0.2-0.4-0.4-0.6-0.6c-0.2-0.2-0.4-0.4-0.5-0.5l-6.1-6.2l2.4-2.3l11.3,11.5l-1.4,1.4C560.5,384.1,560.4,384.2,560.3,384.3z"/>
	<path d="M518.4,402.8l2.1-2c0.2-0.2,0.5-0.4,0.7-0.4c0.3,0,0.5,0,0.7,0.1l2.7,1.3l4.4-4.3l-1.3-2.7c-0.1-0.2-0.1-0.4-0.1-0.7
		c0-0.3,0.2-0.5,0.4-0.7l2.1-2.1l6.9,15.9l-2.7,2.7L518.4,402.8z M530.2,399.9L527,403l4.2,2.1c0.3,0.1,0.6,0.3,0.9,0.5
		c0.4,0.2,0.7,0.4,1.1,0.6c-0.2-0.4-0.4-0.8-0.6-1.2c-0.2-0.4-0.3-0.7-0.4-1L530.2,399.9z"/>
	<path d="M503.6,423.2c-0.1,0.1-0.1,0.1-0.2,0.2c-0.1,0-0.2,0.1-0.3,0.1l-2.2-0.1c-0.1-1.1,0-2.1,0.4-3.1c0.4-1,1.1-2,2-2.9
		c0.9-0.9,1.8-1.5,2.8-1.9c1-0.4,2-0.6,3-0.5c1,0.1,2,0.3,3,0.8c1,0.5,1.9,1.1,2.7,2c0.8,0.9,1.5,1.8,1.9,2.8c0.4,1,0.6,2,0.6,3.1
		c0,1-0.3,2.1-0.7,3.1c-0.5,1-1.1,2-2,2.8c-0.4,0.4-0.9,0.8-1.3,1.1c-0.5,0.3-0.9,0.5-1.4,0.7c-0.5,0.2-0.9,0.3-1.4,0.4
		c-0.5,0.1-0.9,0.1-1.4,0.1l-0.3-2.1c0-0.1,0-0.3,0-0.4c0-0.1,0.1-0.3,0.2-0.4c0.1-0.1,0.2-0.2,0.3-0.2c0.1,0,0.3-0.1,0.4-0.1
		c0.2,0,0.3-0.1,0.5-0.1c0.2,0,0.4-0.1,0.6-0.2c0.2-0.1,0.4-0.2,0.7-0.4c0.3-0.2,0.5-0.4,0.8-0.7c0.5-0.5,0.8-1,1.1-1.6
		c0.2-0.6,0.3-1.2,0.3-1.8c0-0.6-0.2-1.2-0.5-1.8c-0.3-0.6-0.7-1.2-1.3-1.8c-0.6-0.6-1.2-1-1.8-1.3c-0.6-0.3-1.2-0.5-1.8-0.5
		c-0.6,0-1.1,0-1.7,0.2c-0.5,0.2-1,0.5-1.4,0.9c-0.2,0.2-0.5,0.5-0.6,0.7c-0.2,0.2-0.3,0.4-0.4,0.7c-0.1,0.2-0.2,0.5-0.3,0.7
		c-0.1,0.2-0.1,0.5-0.1,0.8c0,0.1,0,0.2-0.1,0.3C503.8,423,503.7,423.1,503.6,423.2z"/>
	<path d="M477.8,442.7l2.1-2c0.2-0.2,0.5-0.4,0.7-0.4c0.3,0,0.5,0,0.7,0.1l2.7,1.3l4.4-4.3l-1.3-2.7c-0.1-0.2-0.1-0.4-0.1-0.7
		c0-0.3,0.2-0.5,0.4-0.7l2.1-2.1l6.9,15.9l-2.7,2.7L477.8,442.7z M489.5,439.8l-3.2,3.1l4.2,2.1c0.3,0.1,0.6,0.3,0.9,0.5
		c0.4,0.2,0.7,0.4,1.1,0.6c-0.2-0.4-0.4-0.8-0.6-1.2c-0.2-0.4-0.3-0.7-0.4-1L489.5,439.8z"/>
	<path d="M465.7,463.7c-0.3-0.1-0.6-0.3-0.9-0.4c0.1,0.3,0.3,0.6,0.4,1c0.1,0.3,0.2,0.6,0.3,0.9l2.8,8.8c0,0.2,0.1,0.3,0.1,0.4
		c0,0.1,0,0.2-0.1,0.3c0,0.1-0.1,0.2-0.2,0.3c-0.1,0.1-0.2,0.2-0.3,0.3l-2,2l-11.3-11.5l2.4-2.3l6.5,6.6c0.3,0.3,0.6,0.7,1,1.1
		l-2.8-8.9c-0.1-0.3-0.1-0.5,0-0.8c0.1-0.3,0.2-0.5,0.4-0.7l0.4-0.4c0.2-0.2,0.4-0.3,0.7-0.4s0.5,0,0.8,0l8.9,2.9
		c-0.2-0.2-0.4-0.3-0.6-0.5c-0.2-0.2-0.4-0.3-0.5-0.5l-6.5-6.6l2.4-2.3l11.3,11.5l-2,2c-0.1,0.1-0.2,0.2-0.3,0.3
		c-0.1,0.1-0.2,0.1-0.3,0.2c-0.1,0-0.2,0.1-0.3,0.1c-0.1,0-0.2,0-0.4-0.1l-8.7-2.9C466.3,464,466,463.8,465.7,463.7z"/>
	<path d="M444.1,483.4l-3.8-3.9l2.7-2.6l11.3,11.5l-4.1,4c-0.8,0.8-1.6,1.4-2.4,1.8c-0.8,0.4-1.5,0.6-2.2,0.6c-0.7,0-1.4-0.1-2-0.4
		c-0.6-0.3-1.2-0.7-1.7-1.2c-0.6-0.6-1-1.2-1.3-1.9c-0.3-0.7-0.4-1.4-0.4-2.1c0-0.7,0.3-1.5,0.7-2.2c0.4-0.8,1-1.5,1.8-2.3
		L444.1,483.4z M446.1,485.5l-1.4,1.4c-0.7,0.7-1,1.3-1,2c0,0.6,0.3,1.2,0.9,1.8c0.3,0.3,0.5,0.5,0.8,0.6c0.3,0.1,0.6,0.2,0.9,0.2
		c0.3,0,0.6-0.1,1-0.2c0.3-0.2,0.7-0.4,1-0.7l1.4-1.4L446.1,485.5z"/>
</g>
<g>
	<path d="M226.7,264.2c0,0.2,0.1,0.4,0,0.5c0,0.1-0.1,0.3-0.2,0.4c-0.1,0.1-0.3,0.2-0.5,0.3c-0.2,0.1-0.5,0.1-0.7,0.2
		c-0.3,0.1-0.6,0.2-0.9,0.3c-0.3,0.1-0.6,0.4-0.9,0.7c-0.5,0.5-0.8,1-0.8,1.4c0,0.5,0.1,0.9,0.5,1.2c0.2,0.2,0.5,0.4,0.8,0.4
		c0.3,0,0.6-0.1,1-0.2c0.3-0.1,0.7-0.3,1.1-0.5c0.4-0.2,0.8-0.4,1.2-0.6c0.4-0.2,0.9-0.4,1.3-0.5c0.5-0.2,0.9-0.2,1.4-0.2
		c0.5,0,1,0.1,1.4,0.3c0.5,0.2,1,0.5,1.4,1c0.5,0.5,0.9,1.1,1.2,1.8c0.3,0.6,0.4,1.3,0.4,2c0,0.7-0.2,1.4-0.5,2.1
		c-0.3,0.7-0.8,1.4-1.5,2c-0.4,0.4-0.8,0.7-1.2,1c-0.4,0.3-0.9,0.5-1.4,0.8c-0.5,0.2-1,0.4-1.5,0.5c-0.5,0.1-1,0.2-1.4,0.2l-0.4-2
		c0-0.2,0-0.3,0-0.5c0-0.2,0.1-0.3,0.3-0.4c0.2-0.2,0.4-0.3,0.6-0.3c0.3-0.1,0.6-0.1,0.9-0.2c0.3-0.1,0.7-0.2,1-0.4
		c0.4-0.2,0.7-0.4,1.1-0.8c0.5-0.5,0.8-1,0.8-1.4c0.1-0.5-0.1-1-0.6-1.4c-0.3-0.3-0.6-0.4-0.9-0.4c-0.3,0-0.6,0-1,0.2
		c-0.3,0.1-0.7,0.3-1.1,0.5c-0.4,0.2-0.8,0.4-1.2,0.7c-0.4,0.2-0.9,0.4-1.3,0.6c-0.5,0.2-0.9,0.2-1.4,0.2c-0.5,0-1-0.1-1.5-0.3
		c-0.5-0.2-1-0.6-1.6-1.1c-0.4-0.4-0.8-0.9-1-1.5c-0.2-0.6-0.3-1.2-0.3-1.9c0-0.7,0.2-1.3,0.5-2c0.3-0.7,0.8-1.3,1.4-2
		c0.4-0.3,0.7-0.7,1.1-0.9c0.4-0.3,0.8-0.5,1.2-0.7c0.4-0.2,0.8-0.3,1.2-0.4c0.4-0.1,0.8-0.2,1.2-0.2L226.7,264.2z"/>
	<path d="M258.2,251.2l-2.1,2c-0.2,0.2-0.5,0.4-0.7,0.4c-0.3,0-0.5,0-0.7-0.1l-2.7-1.3l-4.4,4.3l1.3,2.7c0.1,0.2,0.1,0.4,0.1,0.7
		c0,0.3-0.2,0.5-0.4,0.7l-2.1,2.1l-6.9-15.9l2.7-2.7L258.2,251.2z M246.4,254.2l3.1-3.1l-4.2-2.1c-0.3-0.1-0.6-0.3-0.9-0.5
		c-0.4-0.2-0.7-0.4-1.1-0.6c0.2,0.4,0.4,0.8,0.6,1.2c0.2,0.4,0.3,0.7,0.5,1L246.4,254.2z"/>
	<path d="M270.9,234.5c0.4-0.4,0.6-0.7,0.8-1.1c0.2-0.4,0.2-0.8,0.2-1.2c0-0.4-0.1-0.8-0.4-1.3c-0.2-0.4-0.5-0.8-0.9-1.2l-6.7-6.8
		l2.7-2.6l6.7,6.8c0.7,0.7,1.2,1.5,1.6,2.3c0.4,0.8,0.5,1.6,0.5,2.5c0,0.8-0.2,1.7-0.6,2.5c-0.4,0.8-0.9,1.6-1.7,2.4
		c-0.8,0.8-1.6,1.3-2.4,1.7c-0.8,0.4-1.7,0.5-2.5,0.5c-0.8,0-1.7-0.2-2.5-0.6c-0.8-0.4-1.6-0.9-2.3-1.6l-6.7-6.8l2.7-2.6l6.7,6.8
		c0.4,0.4,0.8,0.7,1.2,0.9c0.4,0.2,0.8,0.3,1.3,0.4c0.4,0,0.8,0,1.2-0.2C270.1,235.1,270.5,234.8,270.9,234.5z"/>
	<path d="M279.4,207.4c0.1-0.1,0.2-0.1,0.3-0.2c0.1,0,0.2-0.1,0.3-0.1c0.1,0,0.2,0,0.4,0l12.3,1.5c-0.2-0.2-0.5-0.4-0.7-0.6
		c-0.2-0.2-0.4-0.4-0.6-0.6l-6-6.1l2.4-2.3l11.4,11.5l-1.4,1.4c-0.2,0.2-0.4,0.3-0.6,0.4s-0.5,0.1-0.8,0.1l-12.2-1.5
		c0.2,0.2,0.4,0.4,0.6,0.5c0.2,0.2,0.4,0.4,0.6,0.5l6.1,6.2l-2.4,2.3l-11.4-11.5l1.4-1.4C279.2,207.6,279.4,207.5,279.4,207.4z"/>
	<path d="M321.2,188.8l-2.1,2c-0.2,0.2-0.5,0.4-0.7,0.4c-0.3,0-0.5,0-0.7-0.1l-2.7-1.3l-4.4,4.3l1.3,2.7c0.1,0.2,0.1,0.4,0.1,0.7
		c0,0.3-0.2,0.5-0.4,0.7l-2.1,2.1l-6.9-15.9l2.7-2.7L321.2,188.8z M309.5,191.7l3.1-3.1l-4.2-2.1c-0.3-0.1-0.6-0.3-0.9-0.5
		c-0.4-0.2-0.7-0.4-1.1-0.6c0.2,0.4,0.4,0.8,0.6,1.2c0.2,0.4,0.3,0.7,0.5,1L309.5,191.7z"/>
	<path d="M336,168.3c0.1-0.1,0.1-0.1,0.2-0.2c0.1,0,0.2-0.1,0.3-0.1l2.2,0.1c0.1,1.1,0,2.1-0.4,3.1c-0.4,1-1.1,2-2,2.9
		c-0.9,0.9-1.8,1.5-2.8,1.9c-1,0.4-2,0.6-3,0.5c-1,0-2-0.3-3-0.8c-1-0.5-1.9-1.1-2.7-2c-0.8-0.9-1.5-1.8-1.9-2.8
		c-0.4-1-0.6-2-0.6-3.1c0-1,0.2-2.1,0.7-3.1c0.5-1,1.1-2,2-2.8c0.4-0.4,0.9-0.8,1.3-1.1c0.5-0.3,0.9-0.5,1.4-0.7
		c0.5-0.2,0.9-0.3,1.4-0.4c0.5-0.1,0.9-0.1,1.4-0.1l0.3,2.1c0,0.1,0,0.3,0,0.4c0,0.1-0.1,0.3-0.2,0.4c-0.1,0.1-0.2,0.2-0.3,0.2
		c-0.1,0-0.3,0.1-0.4,0.1c-0.2,0-0.3,0.1-0.5,0.1c-0.2,0-0.4,0.1-0.6,0.2c-0.2,0.1-0.4,0.2-0.7,0.4c-0.3,0.2-0.5,0.4-0.8,0.7
		c-0.5,0.5-0.8,1-1.1,1.6c-0.2,0.6-0.3,1.2-0.3,1.8c0,0.6,0.2,1.2,0.5,1.8c0.3,0.6,0.7,1.2,1.3,1.8c0.6,0.6,1.2,1,1.8,1.3
		c0.6,0.3,1.2,0.5,1.8,0.5c0.6,0,1.1,0,1.7-0.2c0.5-0.2,1-0.5,1.4-0.9c0.2-0.2,0.5-0.5,0.6-0.7c0.2-0.2,0.3-0.4,0.4-0.7
		c0.1-0.2,0.2-0.5,0.3-0.7c0.1-0.2,0.1-0.5,0.1-0.8c0-0.1,0-0.2,0.1-0.3C335.8,168.5,335.9,168.4,336,168.3z"/>
	<path d="M361.7,148.7l-2.1,2c-0.2,0.2-0.5,0.4-0.7,0.4s-0.5,0-0.7-0.1l-2.7-1.3l-4.4,4.3l1.3,2.7c0.1,0.2,0.1,0.4,0.1,0.7
		c0,0.3-0.2,0.5-0.4,0.7l-2.1,2.1l-6.9-15.9l2.7-2.7L361.7,148.7z M350,151.6l3.1-3.1l-4.2-2.1c-0.3-0.1-0.6-0.3-0.9-0.5
		c-0.4-0.2-0.7-0.4-1.1-0.6c0.2,0.4,0.4,0.8,0.6,1.2c0.2,0.4,0.3,0.7,0.5,1L350,151.6z"/>
	<path d="M373.8,127.6c0.3,0.1,0.6,0.2,0.9,0.4c-0.1-0.3-0.3-0.6-0.4-1c-0.1-0.3-0.2-0.6-0.3-0.9l-2.8-8.7c0-0.2-0.1-0.3-0.1-0.4
		c0-0.1,0-0.2,0.1-0.3c0-0.1,0.1-0.2,0.2-0.3c0.1-0.1,0.2-0.2,0.3-0.3l2-2l11.4,11.5l-2.4,2.3l-6.6-6.6c-0.3-0.3-0.6-0.7-1-1.1
		l2.8,8.9c0.1,0.3,0.1,0.5,0,0.8c-0.1,0.3-0.2,0.5-0.4,0.7l-0.4,0.4c-0.2,0.2-0.4,0.3-0.7,0.4c-0.3,0.1-0.5,0.1-0.8,0l-8.9-2.9
		c0.2,0.2,0.4,0.3,0.6,0.5s0.4,0.3,0.5,0.5l6.6,6.6l-2.4,2.3l-11.4-11.5l2-2c0.1-0.1,0.2-0.2,0.3-0.3c0.1-0.1,0.2-0.1,0.3-0.2
		c0.1,0,0.2-0.1,0.3-0.1c0.1,0,0.2,0,0.4,0.1l8.7,2.9C373.1,127.4,373.4,127.5,373.8,127.6z"/>
	<path d="M395.3,107.9l3.8,3.8l-2.7,2.6l-11.4-11.5l4.1-4c0.8-0.8,1.6-1.4,2.4-1.8c0.8-0.4,1.5-0.6,2.2-0.6c0.7,0,1.4,0.1,2,0.4
		c0.6,0.3,1.2,0.7,1.7,1.2c0.6,0.6,1,1.2,1.3,1.9c0.3,0.7,0.4,1.4,0.4,2.1c0,0.7-0.3,1.5-0.6,2.2c-0.4,0.8-1,1.5-1.8,2.3
		L395.3,107.9z M393.3,105.8l1.4-1.4c0.7-0.7,1-1.3,1-2s-0.3-1.2-0.9-1.8c-0.3-0.3-0.5-0.5-0.8-0.6c-0.3-0.1-0.6-0.2-0.9-0.2
		c-0.3,0-0.6,0.1-1,0.2c-0.3,0.2-0.7,0.4-1,0.7l-1.4,1.4L393.3,105.8z"/>
</g>
<text transform="matrix(0.7487 0.6787 -0.6717 0.7409 598.4709 272.8283)" font-family="'Lato-Black'" font-size="22.1924">5</text>
</svg>
