<?xml version="1.0" encoding="utf-8"?>
<!-- Generator: Adobe Illustrator 18.1.1, SVG Export Plug-In . SVG Version: 6.00 Build 0)  -->
<!DOCTYPE svg PUBLIC "-//W3C//DTD SVG 1.1//EN" "http://www.w3.org/Graphics/SVG/1.1/DTD/svg11.dtd">
<svg version="1.1" id="Lager_1" xmlns="http://www.w3.org/2000/svg" xmlns:xlink="http://www.w3.org/1999/xlink" x="0px" y="0px"
	 viewBox="0 0 170.5 40.5" enable-background="new 0 0 170.5 40.5" xml:space="preserve">
<g>
	<path fill="#3C454A" d="M9.1,26.8l-2.3,7.9c-0.2,0.7-0.8,1.2-1.5,1.2c-0.7,0-1.3-0.5-1.5-1.1L0.1,23.2C0,23.1,0,22.9,0,22.8
		c0-0.7,0.6-1.4,1.4-1.4c0.6,0,1.2,0.4,1.4,1l2.4,8.4l2.3-8.2c0.2-0.7,0.8-1.2,1.5-1.2c0.7,0,1.4,0.6,1.5,1.1l2.3,8.2l2.4-8.4
		c0.2-0.6,0.8-1,1.4-1c0.7,0,1.4,0.6,1.4,1.4c0,0.1,0,0.3-0.1,0.4l-3.7,11.5c-0.2,0.7-0.8,1.2-1.5,1.2c-0.7,0-1.3-0.5-1.5-1.2
		L9.1,26.8z"/>
	<path fill="#3C454A" d="M28.4,22.8c0-0.8,0.6-1.4,1.4-1.4c0.8,0,1.4,0.6,1.4,1.4v10.7c0,0.8-0.5,1.4-1.2,1.7
		c-1.3,0.5-2.8,0.7-4.3,0.7c-1.6,0-3-0.5-4-1.5c-1-1-1.5-2.4-1.5-4v-7.5c0-0.8,0.6-1.4,1.4-1.4c0.8,0,1.4,0.6,1.4,1.4v7.8
		c0,1.7,1,2.7,2.7,2.7c0.9,0,1.8-0.1,2.7-0.3V22.8z"/>
	<path fill="#3C454A" d="M42.3,26.6c0-1.7-1-2.7-2.7-2.7c-0.9,0-1.8,0.1-2.7,0.4v10.1c0,0.8-0.6,1.4-1.4,1.4c-0.8,0-1.4-0.6-1.4-1.4
		V23.7c0-0.8,0.5-1.4,1.2-1.7c1.3-0.5,2.8-0.7,4.3-0.7c1.6,0,3,0.5,4,1.5c1,1,1.5,2.4,1.5,4v7.6c0,0.8-0.6,1.4-1.4,1.4
		c-0.8,0-1.4-0.6-1.4-1.4V26.6z"/>
	<path fill="#3C454A" d="M47.5,26.9c0-1.6,0.5-3,1.5-4c1-1,2.4-1.5,4-1.5c0.9,0,2,0.3,2.7,0.7v-4.6c0-0.8,0.6-1.4,1.4-1.4
		c0.8,0,1.4,0.6,1.4,1.4v16c0,0.8-0.5,1.4-1.2,1.7c-1.4,0.5-2.8,0.7-4.3,0.7c-1.6,0-3-0.5-4-1.5c-1-1-1.5-2.4-1.5-4V26.9z M55.7,25
		C55,24.3,54,24,53,24c-1.7,0-2.7,1-2.7,2.7v3.9c0,1.7,1,2.7,2.7,2.7c0.9,0,1.8-0.1,2.7-0.4V25z"/>
	<path fill="#3C454A" d="M64,29.9c0,1.1,0.2,1.9,0.6,2.4c0.5,0.6,1.2,0.9,2.1,0.9c1,0,2-0.3,3-0.7c0.2-0.1,0.4-0.1,0.6-0.1
		c0.7,0,1.3,0.6,1.3,1.3c0,0.5-0.2,1-0.7,1.2c-1.3,0.6-2.7,0.9-4.2,0.9c-1.6,0-3-0.5-4-1.5c-1-1-1.5-2.4-1.5-4v-3.5
		c0-1.6,0.5-3,1.5-4c1-1,2.4-1.5,4-1.5c1.6,0,3,0.5,4,1.5c1,1,1.5,2.4,1.5,4v1.3c0,1-0.8,1.8-1.8,1.8H64z M69.4,27.3
		c0-2.3-0.9-3.4-2.7-3.4C65,24,64,25,64,27.3H69.4z"/>
	<path fill="#3C454A" d="M74.7,25.4c0-2.3,1.8-4.1,4.1-4.1c0.7,0,1.4,0.1,2.1,0.2c0.7,0.1,1.1,0.7,1.1,1.3c0,0.7-0.6,1.3-1.3,1.3
		c-0.2,0-0.2,0-0.5-0.1c-0.4-0.1-0.9-0.2-1.4-0.2c-0.7,0-1.3,0.6-1.3,1.3v9.2c0,0.8-0.6,1.4-1.4,1.4c-0.8,0-1.4-0.6-1.4-1.4V25.4z"
		/>
	<path fill="#3C454A" d="M86.9,29.7v4.8c0,0.8-0.6,1.4-1.4,1.4c-0.8,0-1.4-0.6-1.4-1.4v-17c0-0.8,0.6-1.4,1.4-1.4
		c0.8,0,1.4,0.6,1.4,1.4v8.8l4.9-4.5c0.3-0.3,0.6-0.4,1-0.4c0.7,0,1.4,0.6,1.4,1.4c0,0.4-0.2,0.7-0.5,1L89,28l5,5.5
		c0.2,0.2,0.3,0.6,0.3,0.9c0,0.7-0.6,1.4-1.4,1.4c-0.4,0-0.8-0.2-1.1-0.5L86.9,29.7z"/>
	<path fill="#3C454A" d="M96.4,25.4c0-2.3,1.8-4.1,4.1-4.1c0.7,0,1.4,0.1,2.1,0.2c0.7,0.1,1.1,0.7,1.1,1.3c0,0.7-0.6,1.3-1.3,1.3
		c-0.2,0-0.2,0-0.5-0.1c-0.4-0.1-0.9-0.2-1.4-0.2c-0.7,0-1.3,0.6-1.3,1.3v9.2c0,0.8-0.6,1.4-1.4,1.4c-0.8,0-1.4-0.6-1.4-1.4V25.4z"
		/>
	<path fill="#3C454A" d="M115.9,33.5c0,0.8-0.5,1.4-1.2,1.7c-1.4,0.5-2.9,0.7-4.5,0.7c-1.7,0-3-0.4-3.9-1.2
		c-0.9-0.8-1.4-1.9-1.4-3.3c0-1.3,0.5-2.4,1.4-3.2c0.9-0.8,2.3-1.2,3.9-1.2h2.8v-1c0-1.2-0.9-2.1-2.3-2.1c-1.3,0-2,0.2-3,0.7
		c-0.2,0.1-0.5,0.2-0.8,0.2c-0.7,0-1.3-0.5-1.3-1.2c0-0.5,0.2-1,0.7-1.3c1.5-0.9,2.8-1.1,4.8-1.1c3.1,0,4.8,2.2,4.8,4.7V33.5z
		 M113.1,29.6h-2.8c-2.4,0-2.5,1.3-2.5,1.8c0,0.5,0.1,1.9,2.5,1.9c0.9,0,2-0.1,2.8-0.4V29.6z"/>
	<path fill="#3C454A" d="M126.8,22.8c0-0.8,0.6-1.4,1.4-1.4c0.8,0,1.4,0.6,1.4,1.4v10.7c0,0.8-0.5,1.4-1.2,1.7
		c-1.3,0.5-2.8,0.7-4.3,0.7c-1.6,0-3-0.5-4-1.5c-1-1-1.5-2.4-1.5-4v-7.5c0-0.8,0.6-1.4,1.4-1.4c0.8,0,1.4,0.6,1.4,1.4v7.8
		c0,1.7,1,2.7,2.7,2.7c0.9,0,1.8-0.1,2.7-0.3V22.8z"/>
	<path fill="#3C454A" d="M132.4,17.4c0-0.8,0.6-1.4,1.4-1.4c0.8,0,1.4,0.6,1.4,1.4v4.2h2.7c0.8,0,1.4,0.6,1.4,1.3
		c0,0.8-0.6,1.4-1.4,1.4h-2.7v7.2c0,1,0.6,1.7,1.3,1.7c0.8,0,0.9-0.2,1.5-0.2c0.7,0,1.4,0.5,1.4,1.3c0,0.7-0.5,1.2-1.2,1.3
		c-0.6,0.1-1.1,0.2-1.6,0.2c-2.3,0-4.1-1.8-4.1-4.3V17.4z"/>
	<path fill="#A0BF38" d="M150.7,5.6c0,0.3,0,0.5,0,0.8c0,2.2,0.8,4.4,2.5,6.1c1.4,1.4,3.1,2.2,5,2.4c-1.4-1.8-2.2-4.1-2.2-6.4
		c0-0.5,0-1.1,0.1-1.6c-1.4-0.9-3-1.3-4.6-1.3C151.2,5.5,151,5.5,150.7,5.6"/>
	<path fill="#A0BF38" d="M157.5,6.8c-0.1,0.6-0.1,1.1-0.1,1.6c0,2.3,0.8,4.5,2.3,6.2c0-0.2,0-0.4,0-0.7c0-2.4,0.9-4.9,2.7-6.7
		c0.7-0.7,1.5-1.3,2.3-1.7c-0.2-2.1-1-4-2.3-5.6C159.8,1.4,158,3.8,157.5,6.8"/>
	<path fill="#A0BF38" d="M170.4,5.5c-0.3,0-0.5,0-0.8,0c-2.2,0-4.4,0.8-6.1,2.5c-1.6,1.6-2.5,3.8-2.5,6.1c0,0.3,0,0.5,0,0.8
		c0.3,0,0.5,0,0.8,0c2.2,0,4.4-0.8,6.1-2.5c1.6-1.6,2.5-3.8,2.5-6.1C170.4,6,170.4,5.8,170.4,5.5"/>
	<g>
		<defs>
			<path id="SVGID_1_" d="M150.1,26.1c0,2.3,0.8,4.4,2.1,6.1c0.3,0.3,0.5,0.7,0.8,1l7.3,7.3l7.3-7.3c1.8-1.8,2.9-4.3,2.9-7.1
				c0-3-1.3-5.7-3.4-7.6c-1.8-1.6-4.2-2.6-6.8-2.6C154.7,16,150.1,20.5,150.1,26.1"/>
		</defs>
		<use xlink:href="#SVGID_1_"  overflow="visible" fill="#E56716"/>
		<clipPath id="SVGID_2_">
			<use xlink:href="#SVGID_1_"  overflow="visible"/>
		</clipPath>
	</g>
	<g>
		<path fill="#3C454A" d="M139,16.7h-0.6c-0.2,0-0.3-0.1-0.3-0.3c0-0.2,0.1-0.3,0.3-0.3h1.7c0.2,0,0.3,0.1,0.3,0.3
			c0,0.2-0.1,0.3-0.3,0.3h-0.6v2.5c0,0.2-0.1,0.3-0.3,0.3c-0.2,0-0.3-0.1-0.3-0.3V16.7z M143,17.5l-0.5,1c-0.1,0.1-0.2,0.2-0.3,0.2
			c-0.1,0-0.2-0.1-0.3-0.2l-0.5-1v1.7c0,0.2-0.1,0.3-0.3,0.3c-0.2,0-0.3-0.1-0.3-0.3v-2.7c0-0.2,0.1-0.3,0.3-0.3
			c0.1,0,0.2,0.1,0.3,0.2l0.8,1.5l0.8-1.5c0.1-0.1,0.2-0.2,0.3-0.2c0.2,0,0.3,0.1,0.3,0.3v2.7c0,0.2-0.1,0.3-0.3,0.3
			c-0.2,0-0.3-0.1-0.3-0.3V17.5z"/>
	</g>
</g>
</svg>
